<mxfile host="65bd71144e" modified="2020-11-24T13:01:04.896Z" agent="5.0 (Macintosh; Intel Mac OS X 10_16_0) AppleWebKit/537.36 (KHTML, like Gecko) Code/1.51.1 Chrome/83.0.4103.122 Electron/9.3.3 Safari/537.36" etag="6yA0B_HdEys9q5Gzp-q4" version="13.6.5">
    <diagram id="y07rfgUSt7vhjbyS16Ti" name="Page-1">
        <mxGraphModel dx="1191" dy="724" grid="1" gridSize="10" guides="1" tooltips="1" connect="1" arrows="1" fold="1" page="1" pageScale="1" pageWidth="827" pageHeight="1169" math="0" shadow="0">
            <root>
                <mxCell id="0"/>
                <mxCell id="1" parent="0"/>
                <mxCell id="PLT5M9D-RfHDKuC77rMl-66" value="" style="endArrow=none;dashed=1;html=1;" parent="1" edge="1">
                    <mxGeometry width="50" height="50" relative="1" as="geometry">
                        <mxPoint x="796.5" y="217" as="sourcePoint"/>
                        <mxPoint x="796.5" y="50" as="targetPoint"/>
                    </mxGeometry>
                </mxCell>
                <mxCell id="PLT5M9D-RfHDKuC77rMl-34" value="" style="endArrow=none;dashed=1;html=1;" parent="1" edge="1">
                    <mxGeometry width="50" height="50" relative="1" as="geometry">
                        <mxPoint x="620" y="217" as="sourcePoint"/>
                        <mxPoint x="620" y="50" as="targetPoint"/>
                    </mxGeometry>
                </mxCell>
                <mxCell id="PLT5M9D-RfHDKuC77rMl-53" value="IoT Server Generated Streams" style="rounded=0;whiteSpace=wrap;html=1;align=center;verticalAlign=top;" parent="1" vertex="1">
                    <mxGeometry x="176.5" y="550" width="203.5" height="180" as="geometry"/>
                </mxCell>
                <mxCell id="PLT5M9D-RfHDKuC77rMl-41" value="" style="endArrow=classic;html=1;" parent="1" target="PLT5M9D-RfHDKuC77rMl-38" edge="1">
                    <mxGeometry width="50" height="50" relative="1" as="geometry">
                        <mxPoint x="224" y="220" as="sourcePoint"/>
                        <mxPoint x="250" y="230" as="targetPoint"/>
                    </mxGeometry>
                </mxCell>
                <mxCell id="PLT5M9D-RfHDKuC77rMl-2" value="" style="endArrow=none;dashed=1;html=1;" parent="1" edge="1">
                    <mxGeometry width="50" height="50" relative="1" as="geometry">
                        <mxPoint x="449.5" y="217" as="sourcePoint"/>
                        <mxPoint x="449.5" y="50" as="targetPoint"/>
                    </mxGeometry>
                </mxCell>
                <mxCell id="PLT5M9D-RfHDKuC77rMl-4" value="" style="shape=flexArrow;endArrow=classic;startArrow=classic;html=1;fillColor=#ffffff;startWidth=20;startSize=12.33;width=26;endWidth=20;endSize=12.33;" parent="1" edge="1">
                    <mxGeometry width="50" height="50" relative="1" as="geometry">
                        <mxPoint x="170" y="211" as="sourcePoint"/>
                        <mxPoint x="960" y="210" as="targetPoint"/>
                    </mxGeometry>
                </mxCell>
                <mxCell id="PLT5M9D-RfHDKuC77rMl-5" value="&lt;font style=&quot;font-size: 16px&quot;&gt;Kafka&lt;/font&gt;" style="text;html=1;resizable=0;points=[];align=center;verticalAlign=middle;labelBackgroundColor=#ffffff;" parent="PLT5M9D-RfHDKuC77rMl-4" vertex="1" connectable="0">
                    <mxGeometry x="-0.2895" y="-6" relative="1" as="geometry">
                        <mxPoint x="104" y="-6" as="offset"/>
                    </mxGeometry>
                </mxCell>
                <mxCell id="PLT5M9D-RfHDKuC77rMl-6" style="edgeStyle=orthogonalEdgeStyle;rounded=0;html=1;exitX=1;exitY=0.5;entryX=0;entryY=0.25;jettySize=auto;orthogonalLoop=1;" parent="1" source="PLT5M9D-RfHDKuC77rMl-7" target="PLT5M9D-RfHDKuC77rMl-11" edge="1">
                    <mxGeometry relative="1" as="geometry"/>
                </mxCell>
                <mxCell id="PLT5M9D-RfHDKuC77rMl-7" value="MQTT" style="rounded=0;whiteSpace=wrap;html=1;" parent="1" vertex="1">
                    <mxGeometry x="76.5" y="81" width="75" height="30" as="geometry"/>
                </mxCell>
                <mxCell id="PLT5M9D-RfHDKuC77rMl-8" style="edgeStyle=orthogonalEdgeStyle;rounded=0;html=1;exitX=1;exitY=0.5;entryX=0;entryY=0.75;jettySize=auto;orthogonalLoop=1;startArrow=classic;startFill=1;" parent="1" source="PLT5M9D-RfHDKuC77rMl-9" target="PLT5M9D-RfHDKuC77rMl-11" edge="1">
                    <mxGeometry relative="1" as="geometry"/>
                </mxCell>
                <mxCell id="PLT5M9D-RfHDKuC77rMl-9" value="REST Push" style="rounded=0;whiteSpace=wrap;html=1;" parent="1" vertex="1">
                    <mxGeometry x="76.5" y="140" width="75" height="30" as="geometry"/>
                </mxCell>
                <mxCell id="PLT5M9D-RfHDKuC77rMl-10" style="edgeStyle=none;rounded=0;orthogonalLoop=1;jettySize=auto;html=1;exitX=0.5;exitY=1;exitDx=0;exitDy=0;startArrow=classic;startFill=1;" parent="1" source="PLT5M9D-RfHDKuC77rMl-11" edge="1">
                    <mxGeometry relative="1" as="geometry">
                        <mxPoint x="238" y="198" as="targetPoint"/>
                    </mxGeometry>
                </mxCell>
                <mxCell id="PLT5M9D-RfHDKuC77rMl-11" value="IoT Server" style="rounded=0;whiteSpace=wrap;html=1;" parent="1" vertex="1">
                    <mxGeometry x="200.5" y="111" width="75" height="30" as="geometry"/>
                </mxCell>
                <mxCell id="PLT5M9D-RfHDKuC77rMl-13" value="&lt;div style=&quot;text-align: center&quot;&gt;&lt;span style=&quot;font-size: 16px&quot;&gt;Ingestion and Description&lt;/span&gt;&lt;/div&gt;" style="text;html=1;resizable=0;points=[];autosize=1;align=left;verticalAlign=top;spacingTop=-4;fontStyle=1" parent="1" vertex="1">
                    <mxGeometry x="170" y="50" width="210" height="20" as="geometry"/>
                </mxCell>
                <mxCell id="PLT5M9D-RfHDKuC77rMl-14" value="&lt;div style=&quot;text-align: center&quot;&gt;&lt;span style=&quot;font-size: 16px&quot;&gt;Transform&lt;/span&gt;&lt;/div&gt;" style="text;html=1;resizable=0;points=[];autosize=1;align=left;verticalAlign=top;spacingTop=-4;fontStyle=1" parent="1" vertex="1">
                    <mxGeometry x="486.5" y="50" width="90" height="20" as="geometry"/>
                </mxCell>
                <mxCell id="PLT5M9D-RfHDKuC77rMl-15" value="General Metadata" style="rounded=0;whiteSpace=wrap;html=1;" parent="1" vertex="1">
                    <mxGeometry x="286" y="83" width="75" height="30" as="geometry"/>
                </mxCell>
                <mxCell id="PLT5M9D-RfHDKuC77rMl-17" value="NSight Master/Metadata" style="rounded=0;whiteSpace=wrap;html=1;" parent="1" vertex="1">
                    <mxGeometry x="283.5" y="140" width="160" height="30" as="geometry"/>
                </mxCell>
                <mxCell id="PLT5M9D-RfHDKuC77rMl-18" style="edgeStyle=orthogonalEdgeStyle;rounded=0;html=1;jettySize=auto;orthogonalLoop=1;startArrow=classic;startFill=1;endArrow=classic;endFill=1;" parent="1" edge="1">
                    <mxGeometry relative="1" as="geometry">
                        <mxPoint x="356.5" y="197" as="targetPoint"/>
                        <mxPoint x="356.5" y="171" as="sourcePoint"/>
                    </mxGeometry>
                </mxCell>
                <mxCell id="PLT5M9D-RfHDKuC77rMl-20" style="edgeStyle=orthogonalEdgeStyle;rounded=0;html=1;exitX=0.5;exitY=1;startArrow=classic;startFill=1;jettySize=auto;orthogonalLoop=1;" parent="1" source="PLT5M9D-RfHDKuC77rMl-21" edge="1">
                    <mxGeometry relative="1" as="geometry">
                        <mxPoint x="506.5" y="197" as="targetPoint"/>
                    </mxGeometry>
                </mxCell>
                <mxCell id="PLT5M9D-RfHDKuC77rMl-21" value="Aggregator A" style="rounded=0;whiteSpace=wrap;html=1;fillColor=#fff2cc;strokeColor=#d6b656;" parent="1" vertex="1">
                    <mxGeometry x="456.5" y="81" width="100" height="30" as="geometry"/>
                </mxCell>
                <mxCell id="PLT5M9D-RfHDKuC77rMl-22" style="edgeStyle=orthogonalEdgeStyle;rounded=0;html=1;exitX=0.5;exitY=1;startArrow=classic;startFill=1;jettySize=auto;orthogonalLoop=1;" parent="1" edge="1">
                    <mxGeometry relative="1" as="geometry">
                        <mxPoint x="561.5" y="197" as="targetPoint"/>
                        <mxPoint x="561.5" y="170" as="sourcePoint"/>
                    </mxGeometry>
                </mxCell>
                <mxCell id="PLT5M9D-RfHDKuC77rMl-23" value="Aggregator B" style="rounded=0;whiteSpace=wrap;html=1;fillColor=#fff2cc;strokeColor=#d6b656;" parent="1" vertex="1">
                    <mxGeometry x="513" y="140" width="100" height="30" as="geometry"/>
                </mxCell>
                <mxCell id="PLT5M9D-RfHDKuC77rMl-27" style="edgeStyle=orthogonalEdgeStyle;rounded=0;html=1;exitX=0.5;exitY=1;startArrow=classic;startFill=1;jettySize=auto;orthogonalLoop=1;" parent="1" edge="1">
                    <mxGeometry relative="1" as="geometry">
                        <mxPoint x="674" y="197" as="targetPoint"/>
                        <mxPoint x="674" y="170" as="sourcePoint"/>
                    </mxGeometry>
                </mxCell>
                <mxCell id="PLT5M9D-RfHDKuC77rMl-28" value="Rapport A Generator" style="rounded=0;whiteSpace=wrap;html=1;fillColor=#f8cecc;strokeColor=#b85450;" parent="1" vertex="1">
                    <mxGeometry x="625.5" y="140" width="100" height="30" as="geometry"/>
                </mxCell>
                <mxCell id="PLT5M9D-RfHDKuC77rMl-29" style="edgeStyle=orthogonalEdgeStyle;rounded=0;html=1;startArrow=classic;startFill=1;jettySize=auto;orthogonalLoop=1;exitX=0.5;exitY=1;exitDx=0;exitDy=0;" parent="1" source="PLT5M9D-RfHDKuC77rMl-30" edge="1">
                    <mxGeometry relative="1" as="geometry">
                        <mxPoint x="732" y="197" as="targetPoint"/>
                        <mxPoint x="790" y="150" as="sourcePoint"/>
                    </mxGeometry>
                </mxCell>
                <mxCell id="PLT5M9D-RfHDKuC77rMl-30" value="Rapport B Generator" style="rounded=0;whiteSpace=wrap;html=1;fillColor=#f8cecc;strokeColor=#b85450;" parent="1" vertex="1">
                    <mxGeometry x="680" y="81" width="104" height="30" as="geometry"/>
                </mxCell>
                <mxCell id="PLT5M9D-RfHDKuC77rMl-33" style="edgeStyle=orthogonalEdgeStyle;rounded=0;html=1;jettySize=auto;orthogonalLoop=1;startArrow=classic;startFill=1;endArrow=classic;endFill=1;" parent="1" source="PLT5M9D-RfHDKuC77rMl-15" edge="1">
                    <mxGeometry relative="1" as="geometry">
                        <mxPoint x="323" y="140" as="targetPoint"/>
                        <mxPoint x="322.5" y="112" as="sourcePoint"/>
                    </mxGeometry>
                </mxCell>
                <mxCell id="PLT5M9D-RfHDKuC77rMl-35" value="&lt;div style=&quot;text-align: center&quot;&gt;&lt;span style=&quot;font-size: 16px&quot;&gt;Rapport&lt;/span&gt;&lt;/div&gt;" style="text;html=1;resizable=0;points=[];autosize=1;align=left;verticalAlign=top;spacingTop=-4;fontStyle=1" parent="1" vertex="1">
                    <mxGeometry x="670" y="50" width="80" height="20" as="geometry"/>
                </mxCell>
                <mxCell id="PLT5M9D-RfHDKuC77rMl-36" value="" style="shape=flexArrow;endArrow=classic;startArrow=classic;html=1;fillColor=#ffffff;startWidth=20;startSize=12.33;width=26;endWidth=20;endSize=12.33;" parent="1" edge="1">
                    <mxGeometry width="50" height="50" relative="1" as="geometry">
                        <mxPoint x="170" y="400" as="sourcePoint"/>
                        <mxPoint x="560" y="400" as="targetPoint"/>
                    </mxGeometry>
                </mxCell>
                <mxCell id="PLT5M9D-RfHDKuC77rMl-37" value="&lt;span style=&quot;font-size: 16px&quot;&gt;Kafka Customer Access&lt;/span&gt;" style="text;html=1;resizable=0;points=[];align=center;verticalAlign=middle;labelBackgroundColor=#ffffff;" parent="PLT5M9D-RfHDKuC77rMl-36" vertex="1" connectable="0">
                    <mxGeometry x="-0.2895" y="-6" relative="1" as="geometry">
                        <mxPoint x="52" y="-6" as="offset"/>
                    </mxGeometry>
                </mxCell>
                <mxCell id="PLT5M9D-RfHDKuC77rMl-38" value="Gateway&lt;br&gt;(Flume or custom)" style="rounded=0;whiteSpace=wrap;html=1;" parent="1" vertex="1">
                    <mxGeometry x="170" y="290" width="110" height="30" as="geometry"/>
                </mxCell>
                <mxCell id="PLT5M9D-RfHDKuC77rMl-42" value="" style="endArrow=classic;html=1;" parent="1" source="PLT5M9D-RfHDKuC77rMl-38" edge="1">
                    <mxGeometry width="50" height="50" relative="1" as="geometry">
                        <mxPoint x="225" y="327" as="sourcePoint"/>
                        <mxPoint x="225" y="387" as="targetPoint"/>
                    </mxGeometry>
                </mxCell>
                <mxCell id="PLT5M9D-RfHDKuC77rMl-43" style="edgeStyle=orthogonalEdgeStyle;rounded=0;html=1;exitX=0.5;exitY=1;startArrow=classic;startFill=1;jettySize=auto;orthogonalLoop=1;" parent="1" source="PLT5M9D-RfHDKuC77rMl-44" edge="1">
                    <mxGeometry relative="1" as="geometry">
                        <mxPoint x="380" y="386" as="targetPoint"/>
                    </mxGeometry>
                </mxCell>
                <mxCell id="PLT5M9D-RfHDKuC77rMl-44" value="Spark Container" style="rounded=0;whiteSpace=wrap;html=1;" parent="1" vertex="1">
                    <mxGeometry x="330" y="270" width="100" height="30" as="geometry"/>
                </mxCell>
                <mxCell id="PLT5M9D-RfHDKuC77rMl-45" style="edgeStyle=orthogonalEdgeStyle;rounded=0;html=1;exitX=0.5;exitY=1;startArrow=classic;startFill=1;jettySize=auto;orthogonalLoop=1;" parent="1" edge="1">
                    <mxGeometry relative="1" as="geometry">
                        <mxPoint x="435" y="386" as="targetPoint"/>
                        <mxPoint x="435" y="359" as="sourcePoint"/>
                    </mxGeometry>
                </mxCell>
                <mxCell id="PLT5M9D-RfHDKuC77rMl-46" value="R Container" style="rounded=0;whiteSpace=wrap;html=1;" parent="1" vertex="1">
                    <mxGeometry x="386.5" y="329" width="100" height="30" as="geometry"/>
                </mxCell>
                <mxCell id="PLT5M9D-RfHDKuC77rMl-47" style="edgeStyle=orthogonalEdgeStyle;rounded=0;html=1;exitX=0.5;exitY=1;startArrow=classic;startFill=1;jettySize=auto;orthogonalLoop=1;" parent="1" source="PLT5M9D-RfHDKuC77rMl-48" edge="1">
                    <mxGeometry relative="1" as="geometry">
                        <mxPoint x="493.5" y="386" as="targetPoint"/>
                    </mxGeometry>
                </mxCell>
                <mxCell id="PLT5M9D-RfHDKuC77rMl-48" value="C# Container" style="rounded=0;whiteSpace=wrap;html=1;" parent="1" vertex="1">
                    <mxGeometry x="443.5" y="270" width="100" height="30" as="geometry"/>
                </mxCell>
                <mxCell id="PLT5M9D-RfHDKuC77rMl-49" value="Customer Cloud" style="ellipse;shape=cloud;whiteSpace=wrap;html=1;" parent="1" vertex="1">
                    <mxGeometry x="616" y="265" width="224" height="145" as="geometry"/>
                </mxCell>
                <mxCell id="PLT5M9D-RfHDKuC77rMl-50" value="" style="endArrow=classic;startArrow=classic;html=1;entryX=0.107;entryY=0.337;entryDx=0;entryDy=0;entryPerimeter=0;" parent="1" source="PLT5M9D-RfHDKuC77rMl-48" target="PLT5M9D-RfHDKuC77rMl-49" edge="1">
                    <mxGeometry width="50" height="50" relative="1" as="geometry">
                        <mxPoint x="560" y="320" as="sourcePoint"/>
                        <mxPoint x="610" y="270" as="targetPoint"/>
                    </mxGeometry>
                </mxCell>
                <mxCell id="PLT5M9D-RfHDKuC77rMl-51" value="" style="shape=flexArrow;endArrow=classic;html=1;" parent="1" edge="1">
                    <mxGeometry width="50" height="50" relative="1" as="geometry">
                        <mxPoint x="190" y="632" as="sourcePoint"/>
                        <mxPoint x="370" y="632" as="targetPoint"/>
                    </mxGeometry>
                </mxCell>
                <mxCell id="PLT5M9D-RfHDKuC77rMl-52" value="" style="shape=flexArrow;endArrow=classic;html=1;" parent="1" edge="1">
                    <mxGeometry width="50" height="50" relative="1" as="geometry">
                        <mxPoint x="190" y="672" as="sourcePoint"/>
                        <mxPoint x="370" y="672" as="targetPoint"/>
                    </mxGeometry>
                </mxCell>
                <mxCell id="PLT5M9D-RfHDKuC77rMl-54" value="Aggregator A Generated Stream" style="rounded=0;whiteSpace=wrap;html=1;align=center;verticalAlign=top;" parent="1" vertex="1">
                    <mxGeometry x="386.5" y="550" width="203.5" height="180" as="geometry"/>
                </mxCell>
                <mxCell id="PLT5M9D-RfHDKuC77rMl-55" value="" style="shape=flexArrow;endArrow=classic;html=1;fillColor=#fff2cc;strokeColor=#d6b656;" parent="1" edge="1">
                    <mxGeometry width="50" height="50" relative="1" as="geometry">
                        <mxPoint x="490" y="653" as="sourcePoint"/>
                        <mxPoint x="578.25" y="653" as="targetPoint"/>
                    </mxGeometry>
                </mxCell>
                <mxCell id="PLT5M9D-RfHDKuC77rMl-57" value="" style="shape=flexArrow;endArrow=classic;html=1;" parent="1" edge="1">
                    <mxGeometry width="50" height="50" relative="1" as="geometry">
                        <mxPoint x="396" y="633" as="sourcePoint"/>
                        <mxPoint x="480" y="633" as="targetPoint"/>
                    </mxGeometry>
                </mxCell>
                <mxCell id="PLT5M9D-RfHDKuC77rMl-58" value="" style="shape=flexArrow;endArrow=classic;html=1;" parent="1" edge="1">
                    <mxGeometry width="50" height="50" relative="1" as="geometry">
                        <mxPoint x="396" y="673" as="sourcePoint"/>
                        <mxPoint x="480" y="673" as="targetPoint"/>
                    </mxGeometry>
                </mxCell>
                <mxCell id="PLT5M9D-RfHDKuC77rMl-59" value="Rapport Generator A" style="rounded=0;whiteSpace=wrap;html=1;align=center;verticalAlign=top;" parent="1" vertex="1">
                    <mxGeometry x="600" y="550" width="203.5" height="180" as="geometry"/>
                </mxCell>
                <mxCell id="PLT5M9D-RfHDKuC77rMl-61" value="" style="shape=flexArrow;endArrow=classic;html=1;" parent="1" edge="1">
                    <mxGeometry width="50" height="50" relative="1" as="geometry">
                        <mxPoint x="609.5" y="600" as="sourcePoint"/>
                        <mxPoint x="693.5" y="600" as="targetPoint"/>
                    </mxGeometry>
                </mxCell>
                <mxCell id="PLT5M9D-RfHDKuC77rMl-62" value="" style="shape=flexArrow;endArrow=classic;html=1;" parent="1" edge="1">
                    <mxGeometry width="50" height="50" relative="1" as="geometry">
                        <mxPoint x="609.5" y="635" as="sourcePoint"/>
                        <mxPoint x="693.5" y="635" as="targetPoint"/>
                    </mxGeometry>
                </mxCell>
                <mxCell id="PLT5M9D-RfHDKuC77rMl-63" value="" style="shape=flexArrow;endArrow=classic;html=1;fillColor=#fff2cc;strokeColor=#d6b656;" parent="1" edge="1">
                    <mxGeometry width="50" height="50" relative="1" as="geometry">
                        <mxPoint x="610" y="670" as="sourcePoint"/>
                        <mxPoint x="693.25" y="670" as="targetPoint"/>
                    </mxGeometry>
                </mxCell>
                <mxCell id="PLT5M9D-RfHDKuC77rMl-67" style="edgeStyle=orthogonalEdgeStyle;rounded=0;html=1;exitX=0.5;exitY=1;startArrow=classic;startFill=1;jettySize=auto;orthogonalLoop=1;" parent="1" source="PLT5M9D-RfHDKuC77rMl-68" edge="1">
                    <mxGeometry relative="1" as="geometry">
                        <mxPoint x="860" y="197" as="targetPoint"/>
                    </mxGeometry>
                </mxCell>
                <mxCell id="PLT5M9D-RfHDKuC77rMl-68" value="Stream Archive" style="rounded=0;whiteSpace=wrap;html=1;fillColor=#d5e8d4;strokeColor=#82b366;" parent="1" vertex="1">
                    <mxGeometry x="810" y="81" width="100" height="30" as="geometry"/>
                </mxCell>
                <mxCell id="PLT5M9D-RfHDKuC77rMl-69" value="" style="shape=flexArrow;endArrow=classic;html=1;fillColor=#d5e8d4;strokeColor=#82b366;" parent="1" edge="1">
                    <mxGeometry width="50" height="50" relative="1" as="geometry">
                        <mxPoint x="610" y="706" as="sourcePoint"/>
                        <mxPoint x="693.25" y="706" as="targetPoint"/>
                    </mxGeometry>
                </mxCell>
                <mxCell id="PLT5M9D-RfHDKuC77rMl-70" value="&lt;font style=&quot;font-size: 18px&quot;&gt;&lt;b&gt;Stream Generation&lt;/b&gt;&lt;/font&gt;" style="text;html=1;align=center;verticalAlign=middle;resizable=0;points=[];autosize=1;" parent="1" vertex="1">
                    <mxGeometry x="396" y="510" width="180" height="20" as="geometry"/>
                </mxCell>
                <mxCell id="PLT5M9D-RfHDKuC77rMl-71" value="" style="pointerEvents=1;shadow=0;dashed=0;html=1;strokeColor=#b85450;fillColor=#f8cecc;labelPosition=center;verticalLabelPosition=bottom;verticalAlign=top;outlineConnect=0;align=center;shape=mxgraph.office.concepts.document;" parent="1" vertex="1">
                    <mxGeometry x="725.5" y="616.5" width="40" height="47" as="geometry"/>
                </mxCell>
                <mxCell id="PLT5M9D-RfHDKuC77rMl-72" value="&lt;div style=&quot;text-align: center&quot;&gt;&lt;span style=&quot;font-size: 16px&quot;&gt;Persistant Storage&lt;/span&gt;&lt;/div&gt;" style="text;html=1;resizable=0;points=[];autosize=1;align=left;verticalAlign=top;spacingTop=-4;fontStyle=1" parent="1" vertex="1">
                    <mxGeometry x="810" y="51" width="160" height="20" as="geometry"/>
                </mxCell>
                <mxCell id="PLT5M9D-RfHDKuC77rMl-73" value="Rapport Metadata" style="rounded=0;whiteSpace=wrap;html=1;" parent="1" vertex="1">
                    <mxGeometry x="368.5" y="83" width="75" height="30" as="geometry"/>
                </mxCell>
                <mxCell id="PLT5M9D-RfHDKuC77rMl-74" style="edgeStyle=orthogonalEdgeStyle;rounded=0;html=1;jettySize=auto;orthogonalLoop=1;startArrow=classic;startFill=1;endArrow=classic;endFill=1;" parent="1" edge="1">
                    <mxGeometry relative="1" as="geometry">
                        <mxPoint x="403" y="139.9999999999999" as="targetPoint"/>
                        <mxPoint x="403.48275862068976" y="113" as="sourcePoint"/>
                    </mxGeometry>
                </mxCell>
                <mxCell id="PLT5M9D-RfHDKuC77rMl-91" value="3. Queries for&lt;br&gt;Streams&lt;br&gt;Matching Pattern" style="edgeStyle=orthogonalEdgeStyle;rounded=0;orthogonalLoop=1;jettySize=auto;html=1;exitX=0;exitY=0.5;exitDx=0;exitDy=0;entryX=1;entryY=0.5;entryDx=0;entryDy=0;startArrow=classic;startFill=1;" parent="1" source="PLT5M9D-RfHDKuC77rMl-98" target="PLT5M9D-RfHDKuC77rMl-99" edge="1">
                    <mxGeometry x="0.1176" y="-35" relative="1" as="geometry">
                        <mxPoint as="offset"/>
                    </mxGeometry>
                </mxCell>
                <mxCell id="PLT5M9D-RfHDKuC77rMl-92" style="edgeStyle=orthogonalEdgeStyle;rounded=0;orthogonalLoop=1;jettySize=auto;html=1;exitX=0.5;exitY=1;exitDx=0;exitDy=0;" parent="1" source="PLT5M9D-RfHDKuC77rMl-98" edge="1">
                    <mxGeometry relative="1" as="geometry">
                        <mxPoint x="603.6034482758623" y="1000.0199999999999" as="targetPoint"/>
                    </mxGeometry>
                </mxCell>
                <mxCell id="PLT5M9D-RfHDKuC77rMl-93" value="5. Generates new&lt;br&gt;aggregated stream" style="edgeLabel;html=1;align=center;verticalAlign=middle;resizable=0;points=[];" parent="PLT5M9D-RfHDKuC77rMl-92" vertex="1" connectable="0">
                    <mxGeometry x="-0.1911" y="-1" relative="1" as="geometry">
                        <mxPoint x="99.21" y="-2.4399999999999995" as="offset"/>
                    </mxGeometry>
                </mxCell>
                <mxCell id="PLT5M9D-RfHDKuC77rMl-94" style="edgeStyle=orthogonalEdgeStyle;rounded=0;orthogonalLoop=1;jettySize=auto;html=1;exitX=0.25;exitY=1;exitDx=0;exitDy=0;startArrow=classic;startFill=1;endArrow=none;endFill=0;" parent="1" source="PLT5M9D-RfHDKuC77rMl-98" edge="1">
                    <mxGeometry relative="1" as="geometry">
                        <mxPoint x="578.7758620689656" y="1030.02" as="targetPoint"/>
                    </mxGeometry>
                </mxCell>
                <mxCell id="PLT5M9D-RfHDKuC77rMl-95" value="4. Subscribes&lt;br&gt;to streams" style="edgeLabel;html=1;align=center;verticalAlign=middle;resizable=0;points=[];" parent="PLT5M9D-RfHDKuC77rMl-94" vertex="1" connectable="0">
                    <mxGeometry x="-0.0481" y="-1" relative="1" as="geometry">
                        <mxPoint x="-42" y="1.03" as="offset"/>
                    </mxGeometry>
                </mxCell>
                <mxCell id="PLT5M9D-RfHDKuC77rMl-117" value="6. Registers New Stream" style="edgeStyle=orthogonalEdgeStyle;rounded=0;orthogonalLoop=1;jettySize=auto;html=1;exitX=0.5;exitY=0;exitDx=0;exitDy=0;entryX=0.75;entryY=0;entryDx=0;entryDy=0;startArrow=none;startFill=0;endArrow=classic;endFill=1;" parent="1" source="PLT5M9D-RfHDKuC77rMl-98" target="PLT5M9D-RfHDKuC77rMl-99" edge="1">
                    <mxGeometry x="0.0348" y="-10" relative="1" as="geometry">
                        <Array as="points">
                            <mxPoint x="603" y="890"/>
                            <mxPoint x="445" y="890"/>
                        </Array>
                        <mxPoint as="offset"/>
                    </mxGeometry>
                </mxCell>
                <mxCell id="PLT5M9D-RfHDKuC77rMl-98" value="Aggregator A" style="rounded=0;whiteSpace=wrap;html=1;fillColor=#fff2cc;strokeColor=#d6b656;" parent="1" vertex="1">
                    <mxGeometry x="553.5" y="940.02" width="100" height="30" as="geometry"/>
                </mxCell>
                <mxCell id="PLT5M9D-RfHDKuC77rMl-99" value="NSight Master/Metadata" style="rounded=0;whiteSpace=wrap;html=1;" parent="1" vertex="1">
                    <mxGeometry x="325.5" y="940.02" width="160" height="30" as="geometry"/>
                </mxCell>
                <mxCell id="PLT5M9D-RfHDKuC77rMl-100" value="1. Generates&lt;br&gt;Stream Data" style="edgeStyle=orthogonalEdgeStyle;rounded=0;orthogonalLoop=1;jettySize=auto;html=1;exitX=0.5;exitY=1;exitDx=0;exitDy=0;" parent="1" source="PLT5M9D-RfHDKuC77rMl-102" edge="1">
                    <mxGeometry x="0.0038" y="38" relative="1" as="geometry">
                        <mxPoint x="202.22413793103442" y="1030.02" as="targetPoint"/>
                        <mxPoint as="offset"/>
                    </mxGeometry>
                </mxCell>
                <mxCell id="PLT5M9D-RfHDKuC77rMl-101" value="2. Registers&lt;br&gt;Streams" style="edgeStyle=orthogonalEdgeStyle;rounded=0;orthogonalLoop=1;jettySize=auto;html=1;exitX=1;exitY=0.5;exitDx=0;exitDy=0;" parent="1" source="PLT5M9D-RfHDKuC77rMl-102" target="PLT5M9D-RfHDKuC77rMl-99" edge="1">
                    <mxGeometry x="0.0698" y="35" relative="1" as="geometry">
                        <mxPoint as="offset"/>
                    </mxGeometry>
                </mxCell>
                <mxCell id="PLT5M9D-RfHDKuC77rMl-102" value="IoT Server" style="rounded=0;whiteSpace=wrap;html=1;" parent="1" vertex="1">
                    <mxGeometry x="164.5" y="940.02" width="75" height="30" as="geometry"/>
                </mxCell>
                <mxCell id="PLT5M9D-RfHDKuC77rMl-103" value="" style="shape=flexArrow;endArrow=classic;html=1;" parent="1" edge="1">
                    <mxGeometry width="50" height="50" relative="1" as="geometry">
                        <mxPoint x="160" y="1040.02" as="sourcePoint"/>
                        <mxPoint x="630" y="1040" as="targetPoint"/>
                    </mxGeometry>
                </mxCell>
                <mxCell id="PLT5M9D-RfHDKuC77rMl-104" value="" style="shape=flexArrow;endArrow=classic;html=1;" parent="1" edge="1">
                    <mxGeometry width="50" height="50" relative="1" as="geometry">
                        <mxPoint x="160" y="1075.02" as="sourcePoint"/>
                        <mxPoint x="630" y="1075" as="targetPoint"/>
                    </mxGeometry>
                </mxCell>
                <mxCell id="PLT5M9D-RfHDKuC77rMl-105" value="" style="shape=flexArrow;endArrow=classic;html=1;fillColor=#fff2cc;strokeColor=#d6b656;" parent="1" edge="1">
                    <mxGeometry width="50" height="50" relative="1" as="geometry">
                        <mxPoint x="585.5" y="1006.02" as="sourcePoint"/>
                        <mxPoint x="930" y="1006" as="targetPoint"/>
                    </mxGeometry>
                </mxCell>
                <mxCell id="PLT5M9D-RfHDKuC77rMl-120" style="edgeStyle=orthogonalEdgeStyle;rounded=0;orthogonalLoop=1;jettySize=auto;html=1;exitX=0;exitY=0.5;exitDx=0;exitDy=0;entryX=0.5;entryY=0;entryDx=0;entryDy=0;startArrow=classic;startFill=1;endArrow=classic;endFill=1;" parent="1" source="PLT5M9D-RfHDKuC77rMl-118" target="PLT5M9D-RfHDKuC77rMl-99" edge="1">
                    <mxGeometry relative="1" as="geometry">
                        <Array as="points">
                            <mxPoint x="710" y="955"/>
                            <mxPoint x="710" y="840"/>
                            <mxPoint x="405" y="840"/>
                        </Array>
                    </mxGeometry>
                </mxCell>
                <mxCell id="PLT5M9D-RfHDKuC77rMl-121" value="7. Queries for matching patterns" style="edgeLabel;html=1;align=center;verticalAlign=middle;resizable=0;points=[];" parent="PLT5M9D-RfHDKuC77rMl-120" vertex="1" connectable="0">
                    <mxGeometry x="0.0674" y="1" relative="1" as="geometry">
                        <mxPoint x="-5.91" y="-11.03" as="offset"/>
                    </mxGeometry>
                </mxCell>
                <mxCell id="PLT5M9D-RfHDKuC77rMl-122" value="9. Retrieves missing&lt;br&gt;historical data" style="edgeStyle=orthogonalEdgeStyle;rounded=0;orthogonalLoop=1;jettySize=auto;html=1;exitX=0.5;exitY=0;exitDx=0;exitDy=0;startArrow=classic;startFill=1;endArrow=none;endFill=0;" parent="1" source="PLT5M9D-RfHDKuC77rMl-118" target="PLT5M9D-RfHDKuC77rMl-119" edge="1">
                    <mxGeometry x="0.2003" y="-56" relative="1" as="geometry">
                        <mxPoint as="offset"/>
                    </mxGeometry>
                </mxCell>
                <mxCell id="PLT5M9D-RfHDKuC77rMl-124" style="edgeStyle=orthogonalEdgeStyle;rounded=0;orthogonalLoop=1;jettySize=auto;html=1;exitX=0.5;exitY=1;exitDx=0;exitDy=0;startArrow=classic;startFill=1;endArrow=none;endFill=0;" parent="1" source="PLT5M9D-RfHDKuC77rMl-118" edge="1">
                    <mxGeometry relative="1" as="geometry">
                        <mxPoint x="833.9655172413795" y="1000" as="targetPoint"/>
                    </mxGeometry>
                </mxCell>
                <mxCell id="PLT5M9D-RfHDKuC77rMl-125" value="8. Reads Stream" style="edgeLabel;html=1;align=center;verticalAlign=middle;resizable=0;points=[];" parent="PLT5M9D-RfHDKuC77rMl-124" vertex="1" connectable="0">
                    <mxGeometry x="0.1835" y="-1" relative="1" as="geometry">
                        <mxPoint x="51.02" y="-7.95" as="offset"/>
                    </mxGeometry>
                </mxCell>
                <mxCell id="PLT5M9D-RfHDKuC77rMl-126" style="edgeStyle=orthogonalEdgeStyle;rounded=0;orthogonalLoop=1;jettySize=auto;html=1;exitX=1;exitY=0.5;exitDx=0;exitDy=0;startArrow=none;startFill=0;endArrow=classic;endFill=1;" parent="1" source="PLT5M9D-RfHDKuC77rMl-118" target="PLT5M9D-RfHDKuC77rMl-123" edge="1">
                    <mxGeometry relative="1" as="geometry"/>
                </mxCell>
                <mxCell id="PLT5M9D-RfHDKuC77rMl-127" value="10. Generates&lt;br&gt;Rapport" style="edgeLabel;html=1;align=center;verticalAlign=middle;resizable=0;points=[];" parent="PLT5M9D-RfHDKuC77rMl-126" vertex="1" connectable="0">
                    <mxGeometry x="-0.0442" y="2" relative="1" as="geometry">
                        <mxPoint x="5.66" y="-13" as="offset"/>
                    </mxGeometry>
                </mxCell>
                <mxCell id="PLT5M9D-RfHDKuC77rMl-118" value="Rapport A Generator" style="rounded=0;whiteSpace=wrap;html=1;fillColor=#f8cecc;strokeColor=#b85450;" parent="1" vertex="1">
                    <mxGeometry x="784" y="940.02" width="100" height="30" as="geometry"/>
                </mxCell>
                <mxCell id="PLT5M9D-RfHDKuC77rMl-119" value="Stream Archive" style="rounded=0;whiteSpace=wrap;html=1;fillColor=#d5e8d4;strokeColor=#82b366;" parent="1" vertex="1">
                    <mxGeometry x="784" y="860" width="100" height="30" as="geometry"/>
                </mxCell>
                <mxCell id="PLT5M9D-RfHDKuC77rMl-123" value="" style="pointerEvents=1;shadow=0;dashed=0;html=1;strokeColor=#b85450;fillColor=#f8cecc;labelPosition=center;verticalLabelPosition=bottom;verticalAlign=top;outlineConnect=0;align=center;shape=mxgraph.office.concepts.document;" parent="1" vertex="1">
                    <mxGeometry x="990" y="931.52" width="40" height="47" as="geometry"/>
                </mxCell>
                <mxCell id="PLT5M9D-RfHDKuC77rMl-128" value="&lt;font style=&quot;font-size: 18px&quot;&gt;&lt;b&gt;Stream and Application Flow&lt;/b&gt;&lt;/font&gt;" style="text;html=1;align=center;verticalAlign=middle;resizable=0;points=[];autosize=1;" parent="1" vertex="1">
                    <mxGeometry x="380" y="790" width="260" height="20" as="geometry"/>
                </mxCell>
            </root>
        </mxGraphModel>
    </diagram>
</mxfile>